<svg width="392" height="146" viewBox="0 0 392 146" fill="none" xmlns="http://www.w3.org/2000/svg">
<path d="M55.5039 82.8549L29 98V128.929C29 129.283 29.1872 129.61 29.4923 129.79L55.4923 145.112C56.1589 145.504 57 145.024 57 144.25V83.7232C57 82.9554 56.1705 82.474 55.5039 82.8549Z" fill="#5C5C5C"/>
<path d="M0 49L85.5042 0.282475C85.8115 0.107406 86.1884 0.107641 86.4954 0.283095L112.487 15.1356C113.158 15.5186 113.159 16.4846 112.491 16.8702L29 65L0 49Z" fill="#FF9934"/>
<path d="M29 65L0 49V80.4271C0 80.782 0.188108 81.1103 0.494281 81.2898L29 98V65Z" fill="#5C5C5C"/>
<path d="M96.05 122V61.6H75.35V54.5H126.95V61.6H106.3V122H96.05ZM140.891 122V54.5H173.841C180.375 54.5 184.791 56.3833 187.091 60.15C189.391 63.9167 190.541 68.5 190.541 73.9C190.541 79.2667 189.358 83.7833 186.991 87.45C184.625 91.0833 180.108 92.9 173.441 92.9H151.091V122H140.891ZM179.991 122L166.591 90.2L176.791 89.55L191.091 122H179.991ZM151.091 86.45H170.591C174.291 86.45 176.825 85.3333 178.191 83.1C179.591 80.8333 180.291 77.8167 180.291 74.05C180.291 70.2833 179.591 67.2667 178.191 65C176.825 62.7333 174.291 61.6 170.591 61.6H151.091V86.45ZM202.97 122L225.57 54.4H240.22L262.82 122H252.27L246.37 103.25H219.52L213.57 122H202.97ZM221.27 96.35H244.62L233.02 60.45H232.87L221.27 96.35ZM299.306 122.45C289.206 122.45 282.073 119.733 277.906 114.3C273.74 108.833 271.656 100.1 271.656 88.1C271.656 76.1333 273.74 67.45 277.906 62.05C282.073 56.65 289.19 53.95 299.256 53.95C309.29 53.95 316.206 56.4833 320.006 61.55C323.806 66.5833 325.706 73.1 325.706 81.1H315.356C315.356 73.8667 313.99 68.7167 311.256 65.65C308.556 62.5833 304.54 61.05 299.206 61.05C293.74 61.05 289.506 62.7833 286.506 66.25C283.506 69.6833 282.006 76.9667 282.006 88.1C282.006 99.3 283.506 106.65 286.506 110.15C289.54 113.617 293.773 115.35 299.206 115.35C304.54 115.35 308.556 113.783 311.256 110.65C313.99 107.483 315.356 102.333 315.356 95.2H325.706C325.706 103.033 323.806 109.533 320.006 114.7C316.206 119.867 309.306 122.45 299.306 122.45ZM341.409 122V54.5H386.109V61.6H351.659V84.1H384.059V90.9H351.659V114.9H386.109V122H341.409Z" fill="#252525"/>
<path d="M77.405 138V131.96H75.335V131.25H80.495V131.96H78.43V138H77.405ZM83.2523 138.05C82.3323 138.05 81.6689 137.783 81.2623 137.25C80.8589 136.717 80.6573 135.975 80.6573 135.025C80.6573 134.025 80.8639 133.275 81.2773 132.775C81.6906 132.272 82.3439 132.02 83.2373 132.02C84.1539 132.02 84.8089 132.272 85.2023 132.775C85.5989 133.275 85.7973 134.02 85.7973 135.01C85.7973 135.127 85.7906 135.235 85.7773 135.335H81.5273V134.705H84.8473L84.7923 134.815C84.7923 134.042 84.6556 133.495 84.3823 133.175C84.1089 132.852 83.7273 132.69 83.2373 132.69C82.7606 132.69 82.3739 132.858 82.0773 133.195C81.7839 133.532 81.6373 134.142 81.6373 135.025C81.6373 135.862 81.7789 136.465 82.0623 136.835C82.3489 137.202 82.7456 137.385 83.2523 137.385V138.05ZM83.2523 137.385C83.5423 137.385 83.7939 137.337 84.0073 137.24C84.2239 137.14 84.3906 136.973 84.5073 136.74C84.6273 136.507 84.7156 136.245 84.7723 135.955L85.6823 136.2C85.6256 136.607 85.4939 136.952 85.2873 137.235C85.0806 137.518 84.8139 137.725 84.4873 137.855C84.1639 137.985 83.7523 138.05 83.2523 138.05V137.385ZM89.2338 138.045C88.5238 138.045 87.9488 137.917 87.5088 137.66C87.0688 137.4 86.7955 136.94 86.6888 136.28L87.5838 135.97C87.6405 136.47 87.8105 136.83 88.0938 137.05C88.3805 137.267 88.7655 137.375 89.2488 137.375C89.7055 137.375 90.0488 137.293 90.2788 137.13C90.5088 136.967 90.6238 136.755 90.6238 136.495C90.6238 136.118 90.4472 135.865 90.0938 135.735C89.7438 135.605 89.3055 135.482 88.7788 135.365C88.1722 135.235 87.6788 135.05 87.2988 134.81C86.9222 134.57 86.7338 134.167 86.7338 133.6C86.7338 133.087 86.9422 132.697 87.3588 132.43C87.7788 132.16 88.3522 132.025 89.0788 132.025C89.7988 132.025 90.3688 132.157 90.7888 132.42C91.2088 132.68 91.4672 133.115 91.5638 133.725L90.6688 134.03C90.6122 133.59 90.4472 133.258 90.1738 133.035C89.9005 132.808 89.5305 132.695 89.0638 132.695C88.6138 132.695 88.2788 132.777 88.0588 132.94C87.8422 133.103 87.7338 133.323 87.7338 133.6C87.7338 133.943 87.8988 134.18 88.2288 134.31C88.5622 134.437 88.9855 134.557 89.4988 134.67C90.0988 134.797 90.6022 134.973 91.0088 135.2C91.4188 135.423 91.6238 135.83 91.6238 136.42C91.6238 136.967 91.4205 137.375 91.0138 137.645C90.6105 137.912 90.0172 138.045 89.2338 138.045ZM95.0277 138.065C94.591 138.065 94.226 137.97 93.9327 137.78C93.6393 137.59 93.4927 137.235 93.4927 136.715V132.785H92.1077V132.075H93.4927V130.735H94.5077V132.075H96.4627V132.785H94.5077V136.475C94.5077 136.838 94.581 137.078 94.7277 137.195C94.8777 137.312 95.091 137.37 95.3677 137.37C95.611 137.37 95.8477 137.332 96.0777 137.255V137.94C95.7443 138.023 95.3943 138.065 95.0277 138.065ZM97.5055 138V132.07H98.5205V138H97.5055ZM97.5055 130.45H98.5205V131.35H97.5055V130.45ZM99.8019 138V132.075H100.597L100.812 133.06V138H99.8019ZM103.117 138V134.445C103.117 133.865 103.035 133.435 102.872 133.155C102.709 132.872 102.442 132.73 102.072 132.73C101.695 132.73 101.39 132.883 101.157 133.19C100.924 133.497 100.807 133.923 100.807 134.47L100.267 134.205C100.267 133.625 100.472 133.117 100.882 132.68C101.295 132.24 101.8 132.02 102.397 132.02C103.067 132.02 103.522 132.245 103.762 132.695C104.005 133.145 104.127 133.705 104.127 134.375V138H103.117ZM106.417 138V134.445C106.417 133.865 106.337 133.435 106.177 133.155C106.02 132.872 105.755 132.73 105.382 132.73C105.005 132.73 104.7 132.883 104.467 133.19C104.234 133.497 104.117 133.923 104.117 134.47L103.582 134.205C103.582 133.635 103.787 133.128 104.197 132.685C104.61 132.242 105.114 132.02 105.707 132.02C106.377 132.02 106.83 132.245 107.067 132.695C107.307 133.142 107.427 133.702 107.427 134.375V138H106.417ZM110.948 138.045C110.064 138.045 109.408 137.798 108.978 137.305C108.551 136.812 108.338 136.05 108.338 135.02C108.338 133.99 108.551 133.232 108.978 132.745C109.408 132.258 110.064 132.015 110.948 132.015C111.831 132.015 112.486 132.258 112.913 132.745C113.339 133.232 113.553 133.99 113.553 135.02C113.553 136.05 113.339 136.812 112.913 137.305C112.486 137.798 111.831 138.045 110.948 138.045ZM110.948 137.345C111.411 137.345 111.793 137.183 112.093 136.86C112.393 136.533 112.543 135.922 112.543 135.025C112.543 134.132 112.393 133.523 112.093 133.2C111.793 132.873 111.411 132.71 110.948 132.71C110.484 132.71 110.103 132.873 109.803 133.2C109.503 133.523 109.353 134.132 109.353 135.025C109.353 135.922 109.503 136.533 109.803 136.86C110.103 137.183 110.484 137.345 110.948 137.345ZM114.528 138V132.075H115.318L115.538 133.225V138H114.528ZM118.243 138V134.62C118.243 133.93 118.14 133.442 117.933 133.155C117.73 132.868 117.42 132.725 117.003 132.725C116.583 132.725 116.228 132.88 115.938 133.19C115.652 133.497 115.508 133.883 115.508 134.35L115.018 134.035C115.018 133.552 115.237 133.095 115.673 132.665C116.113 132.232 116.678 132.015 117.368 132.015C118.055 132.015 118.54 132.247 118.823 132.71C119.11 133.17 119.253 133.803 119.253 134.61V138H118.243ZM120.484 138V132.07H121.499V138H120.484ZM120.484 130.45H121.499V131.35H120.484V130.45ZM124.695 138.055C124.482 138.055 124.274 138.04 124.07 138.01C123.87 137.983 123.684 137.933 123.51 137.86C123.337 137.787 123.184 137.683 123.05 137.55C122.92 137.413 122.819 137.24 122.745 137.03C122.672 136.82 122.635 136.565 122.635 136.265C122.635 135.975 122.672 135.728 122.745 135.525C122.819 135.322 122.919 135.155 123.045 135.025C123.175 134.892 123.325 134.788 123.495 134.715C123.669 134.642 123.854 134.592 124.05 134.565C124.247 134.535 124.45 134.52 124.66 134.52H126.595V134.185C126.595 133.828 126.534 133.543 126.41 133.33C126.29 133.113 126.12 132.957 125.9 132.86C125.684 132.763 125.432 132.715 125.145 132.715C124.882 132.715 124.649 132.76 124.445 132.85C124.242 132.94 124.075 133.085 123.945 133.285C123.815 133.485 123.729 133.748 123.685 134.075L122.695 133.81C122.742 133.487 122.832 133.212 122.965 132.985C123.099 132.758 123.272 132.575 123.485 132.435C123.699 132.292 123.944 132.187 124.22 132.12C124.5 132.053 124.807 132.02 125.14 132.02C125.654 132.02 126.094 132.092 126.46 132.235C126.83 132.378 127.114 132.612 127.31 132.935C127.51 133.255 127.61 133.687 127.61 134.23V138H126.76L126.675 137.25C126.642 137.333 126.574 137.422 126.47 137.515C126.37 137.608 126.237 137.697 126.07 137.78C125.907 137.863 125.71 137.93 125.48 137.98C125.25 138.03 124.989 138.055 124.695 138.055ZM124.915 137.405C125.139 137.405 125.345 137.383 125.535 137.34C125.725 137.297 125.894 137.238 126.04 137.165C126.187 137.088 126.307 137.003 126.4 136.91C126.497 136.813 126.562 136.713 126.595 136.61L126.615 135.1H124.89C124.727 135.1 124.572 135.115 124.425 135.145C124.279 135.175 124.147 135.23 124.03 135.31C123.917 135.39 123.827 135.505 123.76 135.655C123.697 135.805 123.665 136 123.665 136.24C123.665 136.48 123.699 136.677 123.765 136.83C123.832 136.98 123.924 137.097 124.04 137.18C124.16 137.263 124.295 137.322 124.445 137.355C124.595 137.388 124.752 137.405 124.915 137.405ZM128.823 138V130.15H129.833V138H128.823ZM133.443 138.045C132.733 138.045 132.158 137.917 131.718 137.66C131.278 137.4 131.004 136.94 130.898 136.28L131.793 135.97C131.849 136.47 132.019 136.83 132.303 137.05C132.589 137.267 132.974 137.375 133.458 137.375C133.914 137.375 134.258 137.293 134.488 137.13C134.718 136.967 134.833 136.755 134.833 136.495C134.833 136.118 134.656 135.865 134.303 135.735C133.953 135.605 133.514 135.482 132.988 135.365C132.381 135.235 131.888 135.05 131.508 134.81C131.131 134.57 130.943 134.167 130.943 133.6C130.943 133.087 131.151 132.697 131.568 132.43C131.988 132.16 132.561 132.025 133.288 132.025C134.008 132.025 134.578 132.157 134.998 132.42C135.418 132.68 135.676 133.115 135.773 133.725L134.878 134.03C134.821 133.59 134.656 133.258 134.383 133.035C134.109 132.808 133.739 132.695 133.273 132.695C132.823 132.695 132.488 132.777 132.268 132.94C132.051 133.103 131.943 133.323 131.943 133.6C131.943 133.943 132.108 134.18 132.438 134.31C132.771 134.437 133.194 134.557 133.708 134.67C134.308 134.797 134.811 134.973 135.218 135.2C135.628 135.423 135.833 135.83 135.833 136.42C135.833 136.967 135.629 137.375 135.223 137.645C134.819 137.912 134.226 138.045 133.443 138.045ZM136.538 139.105L137.078 137.435H138.073L137.148 139.105H136.538ZM141.709 138V131.25H145.004C145.657 131.25 146.099 131.438 146.329 131.815C146.559 132.192 146.674 132.65 146.674 133.19C146.674 133.727 146.556 134.178 146.319 134.545C146.082 134.908 145.631 135.09 144.964 135.09H142.729V138H141.709ZM145.619 138L144.279 134.82L145.299 134.755L146.729 138H145.619ZM142.729 134.445H144.679C145.049 134.445 145.302 134.333 145.439 134.11C145.579 133.883 145.649 133.582 145.649 133.205C145.649 132.828 145.579 132.527 145.439 132.3C145.302 132.073 145.049 131.96 144.679 131.96H142.729V134.445ZM150.127 138.05C149.207 138.05 148.544 137.783 148.137 137.25C147.734 136.717 147.532 135.975 147.532 135.025C147.532 134.025 147.739 133.275 148.152 132.775C148.566 132.272 149.219 132.02 150.112 132.02C151.029 132.02 151.684 132.272 152.077 132.775C152.474 133.275 152.672 134.02 152.672 135.01C152.672 135.127 152.666 135.235 152.652 135.335H148.402V134.705H151.722L151.667 134.815C151.667 134.042 151.531 133.495 151.257 133.175C150.984 132.852 150.602 132.69 150.112 132.69C149.636 132.69 149.249 132.858 148.952 133.195C148.659 133.532 148.512 134.142 148.512 135.025C148.512 135.862 148.654 136.465 148.937 136.835C149.224 137.202 149.621 137.385 150.127 137.385V138.05ZM150.127 137.385C150.417 137.385 150.669 137.337 150.882 137.24C151.099 137.14 151.266 136.973 151.382 136.74C151.502 136.507 151.591 136.245 151.647 135.955L152.557 136.2C152.501 136.607 152.369 136.952 152.162 137.235C151.956 137.518 151.689 137.725 151.362 137.855C151.039 137.985 150.627 138.05 150.127 138.05V137.385ZM153.679 140.21V132.075H154.469L154.689 133.09V140.21H153.679ZM156.579 138.04C155.932 138.04 155.382 137.878 154.929 137.555C154.475 137.228 154.249 136.89 154.249 136.54L154.689 136C154.689 136.35 154.84 136.66 155.144 136.93C155.45 137.2 155.815 137.335 156.239 137.335C156.682 137.335 157.03 137.172 157.284 136.845C157.54 136.515 157.669 135.91 157.669 135.03C157.669 134.153 157.54 133.55 157.284 133.22C157.03 132.89 156.682 132.725 156.239 132.725C155.815 132.725 155.45 132.862 155.144 133.135C154.84 133.408 154.689 133.717 154.689 134.06L154.249 133.525C154.249 133.172 154.475 132.833 154.929 132.51C155.382 132.183 155.932 132.02 156.579 132.02C157.289 132.02 157.819 132.27 158.169 132.77C158.519 133.27 158.694 134.022 158.694 135.025C158.694 136.025 158.519 136.778 158.169 137.285C157.819 137.788 157.289 138.04 156.579 138.04ZM162.1 138.045C161.217 138.045 160.56 137.798 160.13 137.305C159.703 136.812 159.49 136.05 159.49 135.02C159.49 133.99 159.703 133.232 160.13 132.745C160.56 132.258 161.217 132.015 162.1 132.015C162.983 132.015 163.638 132.258 164.065 132.745C164.492 133.232 164.705 133.99 164.705 135.02C164.705 136.05 164.492 136.812 164.065 137.305C163.638 137.798 162.983 138.045 162.1 138.045ZM162.1 137.345C162.563 137.345 162.945 137.183 163.245 136.86C163.545 136.533 163.695 135.922 163.695 135.025C163.695 134.132 163.545 133.523 163.245 133.2C162.945 132.873 162.563 132.71 162.1 132.71C161.637 132.71 161.255 132.873 160.955 133.2C160.655 133.523 160.505 134.132 160.505 135.025C160.505 135.922 160.655 136.533 160.955 136.86C161.255 137.183 161.637 137.345 162.1 137.345ZM169.221 134.84C169.221 134.027 169.122 133.472 168.926 133.175C168.732 132.878 168.446 132.73 168.066 132.73C167.636 132.73 167.297 132.875 167.051 133.165C166.807 133.452 166.686 133.777 166.686 134.14L166.296 133.855C166.296 133.348 166.489 132.917 166.876 132.56C167.262 132.203 167.781 132.025 168.431 132.025C169.107 132.025 169.576 132.25 169.836 132.7C170.099 133.147 170.231 133.86 170.231 134.84H169.221ZM165.681 138V132.075H166.476L166.691 133.22V138H165.681ZM173.778 138.065C173.341 138.065 172.976 137.97 172.683 137.78C172.389 137.59 172.243 137.235 172.243 136.715V132.785H170.858V132.075H172.243V130.735H173.258V132.075H175.213V132.785H173.258V136.475C173.258 136.838 173.331 137.078 173.478 137.195C173.628 137.312 173.841 137.37 174.118 137.37C174.361 137.37 174.598 137.332 174.828 137.255V137.94C174.494 138.023 174.144 138.065 173.778 138.065ZM178.453 138.045C177.743 138.045 177.168 137.917 176.728 137.66C176.288 137.4 176.014 136.94 175.908 136.28L176.803 135.97C176.859 136.47 177.029 136.83 177.313 137.05C177.599 137.267 177.984 137.375 178.468 137.375C178.924 137.375 179.268 137.293 179.498 137.13C179.728 136.967 179.843 136.755 179.843 136.495C179.843 136.118 179.666 135.865 179.313 135.735C178.963 135.605 178.524 135.482 177.998 135.365C177.391 135.235 176.898 135.05 176.518 134.81C176.141 134.57 175.953 134.167 175.953 133.6C175.953 133.087 176.161 132.697 176.578 132.43C176.998 132.16 177.571 132.025 178.298 132.025C179.018 132.025 179.588 132.157 180.008 132.42C180.428 132.68 180.686 133.115 180.783 133.725L179.888 134.03C179.831 133.59 179.666 133.258 179.393 133.035C179.119 132.808 178.749 132.695 178.283 132.695C177.833 132.695 177.498 132.777 177.278 132.94C177.061 133.103 176.953 133.323 176.953 133.6C176.953 133.943 177.118 134.18 177.448 134.31C177.781 134.437 178.204 134.557 178.718 134.67C179.318 134.797 179.821 134.973 180.228 135.2C180.638 135.423 180.843 135.83 180.843 136.42C180.843 136.967 180.639 137.375 180.233 137.645C179.829 137.912 179.236 138.045 178.453 138.045ZM181.548 139.105L182.088 137.435H183.083L182.158 139.105H181.548ZM188.719 138.055C188.505 138.055 188.297 138.04 188.094 138.01C187.894 137.983 187.707 137.933 187.534 137.86C187.36 137.787 187.207 137.683 187.074 137.55C186.944 137.413 186.842 137.24 186.769 137.03C186.695 136.82 186.659 136.565 186.659 136.265C186.659 135.975 186.695 135.728 186.769 135.525C186.842 135.322 186.942 135.155 187.069 135.025C187.199 134.892 187.349 134.788 187.519 134.715C187.692 134.642 187.877 134.592 188.074 134.565C188.27 134.535 188.474 134.52 188.684 134.52H190.619V134.185C190.619 133.828 190.557 133.543 190.434 133.33C190.314 133.113 190.144 132.957 189.924 132.86C189.707 132.763 189.455 132.715 189.169 132.715C188.905 132.715 188.672 132.76 188.469 132.85C188.265 132.94 188.099 133.085 187.969 133.285C187.839 133.485 187.752 133.748 187.709 134.075L186.719 133.81C186.765 133.487 186.855 133.212 186.989 132.985C187.122 132.758 187.295 132.575 187.509 132.435C187.722 132.292 187.967 132.187 188.244 132.12C188.524 132.053 188.83 132.02 189.164 132.02C189.677 132.02 190.117 132.092 190.484 132.235C190.854 132.378 191.137 132.612 191.334 132.935C191.534 133.255 191.634 133.687 191.634 134.23V138H190.784L190.699 137.25C190.665 137.333 190.597 137.422 190.494 137.515C190.394 137.608 190.26 137.697 190.094 137.78C189.93 137.863 189.734 137.93 189.504 137.98C189.274 138.03 189.012 138.055 188.719 138.055ZM188.939 137.405C189.162 137.405 189.369 137.383 189.559 137.34C189.749 137.297 189.917 137.238 190.064 137.165C190.21 137.088 190.33 137.003 190.424 136.91C190.52 136.813 190.585 136.713 190.619 136.61L190.639 135.1H188.914C188.75 135.1 188.595 135.115 188.449 135.145C188.302 135.175 188.17 135.23 188.054 135.31C187.94 135.39 187.85 135.505 187.784 135.655C187.72 135.805 187.689 136 187.689 136.24C187.689 136.48 187.722 136.677 187.789 136.83C187.855 136.98 187.947 137.097 188.064 137.18C188.184 137.263 188.319 137.322 188.469 137.355C188.619 137.388 188.775 137.405 188.939 137.405ZM192.722 138V132.075H193.512L193.732 133.225V138H192.722ZM196.437 138V134.62C196.437 133.93 196.333 133.442 196.127 133.155C195.923 132.868 195.613 132.725 195.197 132.725C194.777 132.725 194.422 132.88 194.132 133.19C193.845 133.497 193.702 133.883 193.702 134.35L193.212 134.035C193.212 133.552 193.43 133.095 193.867 132.665C194.307 132.232 194.872 132.015 195.562 132.015C196.248 132.015 196.733 132.247 197.017 132.71C197.303 133.17 197.447 133.803 197.447 134.61V138H196.437ZM202.417 138L202.352 137.025V130.15H203.357V138H202.417ZM200.477 138.04C199.767 138.04 199.234 137.79 198.877 137.29C198.524 136.79 198.347 136.035 198.347 135.025C198.347 134.015 198.524 133.262 198.877 132.765C199.234 132.268 199.767 132.02 200.477 132.02C201.127 132.02 201.676 132.183 202.122 132.51C202.569 132.833 202.792 133.172 202.792 133.525L202.357 134.06C202.357 133.717 202.206 133.408 201.902 133.135C201.602 132.862 201.241 132.725 200.817 132.725C200.374 132.725 200.022 132.888 199.762 133.215C199.502 133.538 199.372 134.143 199.372 135.03C199.372 135.917 199.502 136.523 199.762 136.85C200.022 137.173 200.374 137.335 200.817 137.335C201.241 137.335 201.602 137.2 201.902 136.93C202.206 136.657 202.357 136.347 202.357 136L202.792 136.54C202.792 136.89 202.569 137.228 202.122 137.555C201.676 137.878 201.127 138.04 200.477 138.04ZM206.741 138L209.001 131.24H210.466L212.726 138H211.671L211.081 136.125H208.396L207.801 138H206.741ZM208.571 135.435H210.906L209.746 131.845H209.731L208.571 135.435ZM215.962 138.045C215.252 138.045 214.677 137.917 214.237 137.66C213.797 137.4 213.524 136.94 213.417 136.28L214.312 135.97C214.369 136.47 214.539 136.83 214.822 137.05C215.109 137.267 215.494 137.375 215.977 137.375C216.434 137.375 216.777 137.293 217.007 137.13C217.237 136.967 217.352 136.755 217.352 136.495C217.352 136.118 217.176 135.865 216.822 135.735C216.472 135.605 216.034 135.482 215.507 135.365C214.901 135.235 214.407 135.05 214.027 134.81C213.651 134.57 213.462 134.167 213.462 133.6C213.462 133.087 213.671 132.697 214.087 132.43C214.507 132.16 215.081 132.025 215.807 132.025C216.527 132.025 217.097 132.157 217.517 132.42C217.937 132.68 218.196 133.115 218.292 133.725L217.397 134.03C217.341 133.59 217.176 133.258 216.902 133.035C216.629 132.808 216.259 132.695 215.792 132.695C215.342 132.695 215.007 132.777 214.787 132.94C214.571 133.103 214.462 133.323 214.462 133.6C214.462 133.943 214.627 134.18 214.957 134.31C215.291 134.437 215.714 134.557 216.227 134.67C216.827 134.797 217.331 134.973 217.737 135.2C218.147 135.423 218.352 135.83 218.352 136.42C218.352 136.967 218.149 137.375 217.742 137.645C217.339 137.912 216.746 138.045 215.962 138.045ZM221.773 138.045C221.063 138.045 220.488 137.917 220.048 137.66C219.608 137.4 219.335 136.94 219.228 136.28L220.123 135.97C220.18 136.47 220.35 136.83 220.633 137.05C220.92 137.267 221.305 137.375 221.788 137.375C222.245 137.375 222.588 137.293 222.818 137.13C223.048 136.967 223.163 136.755 223.163 136.495C223.163 136.118 222.986 135.865 222.633 135.735C222.283 135.605 221.845 135.482 221.318 135.365C220.711 135.235 220.218 135.05 219.838 134.81C219.461 134.57 219.273 134.167 219.273 133.6C219.273 133.087 219.481 132.697 219.898 132.43C220.318 132.16 220.891 132.025 221.618 132.025C222.338 132.025 222.908 132.157 223.328 132.42C223.748 132.68 224.006 133.115 224.103 133.725L223.208 134.03C223.151 133.59 222.986 133.258 222.713 133.035C222.44 132.808 222.07 132.695 221.603 132.695C221.153 132.695 220.818 132.777 220.598 132.94C220.381 133.103 220.273 133.323 220.273 133.6C220.273 133.943 220.438 134.18 220.768 134.31C221.101 134.437 221.525 134.557 222.038 134.67C222.638 134.797 223.141 134.973 223.548 135.2C223.958 135.423 224.163 135.83 224.163 136.42C224.163 136.967 223.96 137.375 223.553 137.645C223.15 137.912 222.556 138.045 221.773 138.045ZM227.578 138.05C226.658 138.05 225.995 137.783 225.588 137.25C225.185 136.717 224.983 135.975 224.983 135.025C224.983 134.025 225.19 133.275 225.603 132.775C226.017 132.272 226.67 132.02 227.563 132.02C228.48 132.02 229.135 132.272 229.528 132.775C229.925 133.275 230.123 134.02 230.123 135.01C230.123 135.127 230.117 135.235 230.103 135.335H225.853V134.705H229.173L229.118 134.815C229.118 134.042 228.982 133.495 228.708 133.175C228.435 132.852 228.053 132.69 227.563 132.69C227.087 132.69 226.7 132.858 226.403 133.195C226.11 133.532 225.963 134.142 225.963 135.025C225.963 135.862 226.105 136.465 226.388 136.835C226.675 137.202 227.072 137.385 227.578 137.385V138.05ZM227.578 137.385C227.868 137.385 228.12 137.337 228.333 137.24C228.55 137.14 228.717 136.973 228.833 136.74C228.953 136.507 229.042 136.245 229.098 135.955L230.008 136.2C229.952 136.607 229.82 136.952 229.613 137.235C229.407 137.518 229.14 137.725 228.813 137.855C228.49 137.985 228.078 138.05 227.578 138.05V137.385ZM233.56 138.045C232.85 138.045 232.275 137.917 231.835 137.66C231.395 137.4 231.122 136.94 231.015 136.28L231.91 135.97C231.967 136.47 232.137 136.83 232.42 137.05C232.707 137.267 233.092 137.375 233.575 137.375C234.032 137.375 234.375 137.293 234.605 137.13C234.835 136.967 234.95 136.755 234.95 136.495C234.95 136.118 234.773 135.865 234.42 135.735C234.07 135.605 233.632 135.482 233.105 135.365C232.498 135.235 232.005 135.05 231.625 134.81C231.248 134.57 231.06 134.167 231.06 133.6C231.06 133.087 231.268 132.697 231.685 132.43C232.105 132.16 232.678 132.025 233.405 132.025C234.125 132.025 234.695 132.157 235.115 132.42C235.535 132.68 235.793 133.115 235.89 133.725L234.995 134.03C234.938 133.59 234.773 133.258 234.5 133.035C234.227 132.808 233.857 132.695 233.39 132.695C232.94 132.695 232.605 132.777 232.385 132.94C232.168 133.103 232.06 133.323 232.06 133.6C232.06 133.943 232.225 134.18 232.555 134.31C232.888 134.437 233.312 134.557 233.825 134.67C234.425 134.797 234.928 134.973 235.335 135.2C235.745 135.423 235.95 135.83 235.95 136.42C235.95 136.967 235.747 137.375 235.34 137.645C234.937 137.912 234.343 138.045 233.56 138.045ZM239.371 138.045C238.661 138.045 238.086 137.917 237.646 137.66C237.206 137.4 236.932 136.94 236.826 136.28L237.721 135.97C237.777 136.47 237.947 136.83 238.231 137.05C238.517 137.267 238.902 137.375 239.386 137.375C239.842 137.375 240.186 137.293 240.416 137.13C240.646 136.967 240.761 136.755 240.761 136.495C240.761 136.118 240.584 135.865 240.231 135.735C239.881 135.605 239.442 135.482 238.916 135.365C238.309 135.235 237.816 135.05 237.436 134.81C237.059 134.57 236.871 134.167 236.871 133.6C236.871 133.087 237.079 132.697 237.496 132.43C237.916 132.16 238.489 132.025 239.216 132.025C239.936 132.025 240.506 132.157 240.926 132.42C241.346 132.68 241.604 133.115 241.701 133.725L240.806 134.03C240.749 133.59 240.584 133.258 240.311 133.035C240.037 132.808 239.667 132.695 239.201 132.695C238.751 132.695 238.416 132.777 238.196 132.94C237.979 133.103 237.871 133.323 237.871 133.6C237.871 133.943 238.036 134.18 238.366 134.31C238.699 134.437 239.122 134.557 239.636 134.67C240.236 134.797 240.739 134.973 241.146 135.2C241.556 135.423 241.761 135.83 241.761 136.42C241.761 136.967 241.557 137.375 241.151 137.645C240.747 137.912 240.154 138.045 239.371 138.045ZM242.751 138V132.075H243.546L243.761 133.06V138H242.751ZM246.066 138V134.445C246.066 133.865 245.984 133.435 245.821 133.155C245.658 132.872 245.391 132.73 245.021 132.73C244.644 132.73 244.339 132.883 244.106 133.19C243.873 133.497 243.756 133.923 243.756 134.47L243.216 134.205C243.216 133.625 243.421 133.117 243.831 132.68C244.244 132.24 244.749 132.02 245.346 132.02C246.016 132.02 246.471 132.245 246.711 132.695C246.954 133.145 247.076 133.705 247.076 134.375V138H246.066ZM249.366 138V134.445C249.366 133.865 249.286 133.435 249.126 133.155C248.969 132.872 248.704 132.73 248.331 132.73C247.954 132.73 247.649 132.883 247.416 133.19C247.183 133.497 247.066 133.923 247.066 134.47L246.531 134.205C246.531 133.635 246.736 133.128 247.146 132.685C247.559 132.242 248.063 132.02 248.656 132.02C249.326 132.02 249.779 132.245 250.016 132.695C250.256 133.142 250.376 133.702 250.376 134.375V138H249.366ZM253.897 138.05C252.977 138.05 252.313 137.783 251.907 137.25C251.503 136.717 251.302 135.975 251.302 135.025C251.302 134.025 251.508 133.275 251.922 132.775C252.335 132.272 252.988 132.02 253.882 132.02C254.798 132.02 255.453 132.272 255.847 132.775C256.243 133.275 256.442 134.02 256.442 135.01C256.442 135.127 256.435 135.235 256.422 135.335H252.172V134.705H255.492L255.437 134.815C255.437 134.042 255.3 133.495 255.027 133.175C254.753 132.852 254.372 132.69 253.882 132.69C253.405 132.69 253.018 132.858 252.722 133.195C252.428 133.532 252.282 134.142 252.282 135.025C252.282 135.862 252.423 136.465 252.707 136.835C252.993 137.202 253.39 137.385 253.897 137.385V138.05ZM253.897 137.385C254.187 137.385 254.438 137.337 254.652 137.24C254.868 137.14 255.035 136.973 255.152 136.74C255.272 136.507 255.36 136.245 255.417 135.955L256.327 136.2C256.27 136.607 256.138 136.952 255.932 137.235C255.725 137.518 255.458 137.725 255.132 137.855C254.808 137.985 254.397 138.05 253.897 138.05V137.385ZM257.448 138V132.075H258.238L258.458 133.225V138H257.448ZM261.163 138V134.62C261.163 133.93 261.06 133.442 260.853 133.155C260.65 132.868 260.34 132.725 259.923 132.725C259.503 132.725 259.148 132.88 258.858 133.19C258.572 133.497 258.428 133.883 258.428 134.35L257.938 134.035C257.938 133.552 258.157 133.095 258.593 132.665C259.033 132.232 259.598 132.015 260.288 132.015C260.975 132.015 261.46 132.247 261.743 132.71C262.03 133.17 262.173 133.803 262.173 134.61V138H261.163ZM265.701 138.065C265.265 138.065 264.9 137.97 264.606 137.78C264.313 137.59 264.166 137.235 264.166 136.715V132.785H262.781V132.075H264.166V130.735H265.181V132.075H267.136V132.785H265.181V136.475C265.181 136.838 265.255 137.078 265.401 137.195C265.551 137.312 265.765 137.37 266.041 137.37C266.285 137.37 266.521 137.332 266.751 137.255V137.94C266.418 138.023 266.068 138.065 265.701 138.065ZM270.376 138.045C269.666 138.045 269.091 137.917 268.651 137.66C268.211 137.4 267.938 136.94 267.831 136.28L268.726 135.97C268.783 136.47 268.953 136.83 269.236 137.05C269.523 137.267 269.908 137.375 270.391 137.375C270.848 137.375 271.191 137.293 271.421 137.13C271.651 136.967 271.766 136.755 271.766 136.495C271.766 136.118 271.59 135.865 271.236 135.735C270.886 135.605 270.448 135.482 269.921 135.365C269.315 135.235 268.821 135.05 268.441 134.81C268.065 134.57 267.876 134.167 267.876 133.6C267.876 133.087 268.085 132.697 268.501 132.43C268.921 132.16 269.495 132.025 270.221 132.025C270.941 132.025 271.511 132.157 271.931 132.42C272.351 132.68 272.61 133.115 272.706 133.725L271.811 134.03C271.755 133.59 271.59 133.258 271.316 133.035C271.043 132.808 270.673 132.695 270.206 132.695C269.756 132.695 269.421 132.777 269.201 132.94C268.985 133.103 268.876 133.323 268.876 133.6C268.876 133.943 269.041 134.18 269.371 134.31C269.705 134.437 270.128 134.557 270.641 134.67C271.241 134.797 271.745 134.973 272.151 135.2C272.561 135.423 272.766 135.83 272.766 136.42C272.766 136.967 272.563 137.375 272.156 137.645C271.753 137.912 271.16 138.045 270.376 138.045ZM278.782 138.045C277.772 138.045 277.059 137.773 276.642 137.23C276.226 136.683 276.017 135.81 276.017 134.61C276.017 133.413 276.226 132.545 276.642 132.005C277.059 131.465 277.771 131.195 278.777 131.195C279.781 131.195 280.472 131.448 280.852 131.955C281.232 132.458 281.422 133.11 281.422 133.91H280.387C280.387 133.187 280.251 132.672 279.977 132.365C279.707 132.058 279.306 131.905 278.772 131.905C278.226 131.905 277.802 132.078 277.502 132.425C277.202 132.768 277.052 133.497 277.052 134.61C277.052 135.73 277.202 136.465 277.502 136.815C277.806 137.162 278.229 137.335 278.772 137.335C279.306 137.335 279.707 137.178 279.977 136.865C280.251 136.548 280.387 136.033 280.387 135.32H281.422C281.422 136.103 281.232 136.753 280.852 137.27C280.472 137.787 279.782 138.045 278.782 138.045ZM284.912 138.045C284.029 138.045 283.372 137.798 282.942 137.305C282.516 136.812 282.302 136.05 282.302 135.02C282.302 133.99 282.516 133.232 282.942 132.745C283.372 132.258 284.029 132.015 284.912 132.015C285.796 132.015 286.451 132.258 286.877 132.745C287.304 133.232 287.517 133.99 287.517 135.02C287.517 136.05 287.304 136.812 286.877 137.305C286.451 137.798 285.796 138.045 284.912 138.045ZM284.912 137.345C285.376 137.345 285.757 137.183 286.057 136.86C286.357 136.533 286.507 135.922 286.507 135.025C286.507 134.132 286.357 133.523 286.057 133.2C285.757 132.873 285.376 132.71 284.912 132.71C284.449 132.71 284.067 132.873 283.767 133.2C283.467 133.523 283.317 134.132 283.317 135.025C283.317 135.922 283.467 136.533 283.767 136.86C284.067 137.183 284.449 137.345 284.912 137.345ZM288.618 138V130.15H289.628V138H288.618ZM290.913 138V130.15H291.923V138H290.913ZM295.528 138.05C294.608 138.05 293.944 137.783 293.538 137.25C293.134 136.717 292.933 135.975 292.933 135.025C292.933 134.025 293.139 133.275 293.553 132.775C293.966 132.272 294.619 132.02 295.513 132.02C296.429 132.02 297.084 132.272 297.478 132.775C297.874 133.275 298.073 134.02 298.073 135.01C298.073 135.127 298.066 135.235 298.053 135.335H293.803V134.705H297.123L297.068 134.815C297.068 134.042 296.931 133.495 296.658 133.175C296.384 132.852 296.003 132.69 295.513 132.69C295.036 132.69 294.649 132.858 294.353 133.195C294.059 133.532 293.913 134.142 293.913 135.025C293.913 135.862 294.054 136.465 294.338 136.835C294.624 137.202 295.021 137.385 295.528 137.385V138.05ZM295.528 137.385C295.818 137.385 296.069 137.337 296.283 137.24C296.499 137.14 296.666 136.973 296.783 136.74C296.903 136.507 296.991 136.245 297.048 135.955L297.958 136.2C297.901 136.607 297.769 136.952 297.563 137.235C297.356 137.518 297.089 137.725 296.763 137.855C296.439 137.985 296.028 138.05 295.528 138.05V137.385ZM301.424 138.05C300.514 138.05 299.856 137.792 299.449 137.275C299.043 136.755 298.839 136.012 298.839 135.045C298.839 134.025 299.043 133.267 299.449 132.77C299.856 132.273 300.514 132.025 301.424 132.025C302.258 132.025 302.849 132.238 303.199 132.665C303.553 133.088 303.746 133.56 303.779 134.08L302.874 134.38C302.861 133.883 302.729 133.485 302.479 133.185C302.233 132.885 301.881 132.735 301.424 132.735C300.958 132.735 300.581 132.903 300.294 133.24C300.011 133.577 299.869 134.178 299.869 135.045C299.869 135.855 300.013 136.442 300.299 136.805C300.586 137.165 300.961 137.345 301.424 137.345C301.878 137.345 302.229 137.183 302.479 136.86C302.729 136.533 302.861 136.15 302.874 135.71L303.779 136.02C303.746 136.483 303.553 136.938 303.199 137.385C302.846 137.828 302.254 138.05 301.424 138.05ZM307.362 138.065C306.925 138.065 306.56 137.97 306.267 137.78C305.973 137.59 305.827 137.235 305.827 136.715V132.785H304.442V132.075H305.827V130.735H306.842V132.075H308.797V132.785H306.842V136.475C306.842 136.838 306.915 137.078 307.062 137.195C307.212 137.312 307.425 137.37 307.702 137.37C307.945 137.37 308.182 137.332 308.412 137.255V137.94C308.078 138.023 307.728 138.065 307.362 138.065ZM309.839 138V132.07H310.854V138H309.839ZM309.839 130.45H310.854V131.35H309.839V130.45ZM314.561 138.045C313.678 138.045 313.021 137.798 312.591 137.305C312.164 136.812 311.951 136.05 311.951 135.02C311.951 133.99 312.164 133.232 312.591 132.745C313.021 132.258 313.678 132.015 314.561 132.015C315.444 132.015 316.099 132.258 316.526 132.745C316.953 133.232 317.166 133.99 317.166 135.02C317.166 136.05 316.953 136.812 316.526 137.305C316.099 137.798 315.444 138.045 314.561 138.045ZM314.561 137.345C315.024 137.345 315.406 137.183 315.706 136.86C316.006 136.533 316.156 135.922 316.156 135.025C316.156 134.132 316.006 133.523 315.706 133.2C315.406 132.873 315.024 132.71 314.561 132.71C314.098 132.71 313.716 132.873 313.416 133.2C313.116 133.523 312.966 134.132 312.966 135.025C312.966 135.922 313.116 136.533 313.416 136.86C313.716 137.183 314.098 137.345 314.561 137.345ZM318.142 138V132.075H318.932L319.152 133.225V138H318.142ZM321.857 138V134.62C321.857 133.93 321.753 133.442 321.547 133.155C321.343 132.868 321.033 132.725 320.617 132.725C320.197 132.725 319.842 132.88 319.552 133.19C319.265 133.497 319.122 133.883 319.122 134.35L318.632 134.035C318.632 133.552 318.85 133.095 319.287 132.665C319.727 132.232 320.292 132.015 320.982 132.015C321.668 132.015 322.153 132.247 322.437 132.71C322.723 133.17 322.867 133.803 322.867 134.61V138H321.857ZM326.348 138V131.25H330.818V131.96H327.373V134.21H330.613V134.89H327.373V137.29H330.818V138H326.348ZM331.872 138V132.075H332.662L332.882 133.225V138H331.872ZM335.587 138V134.62C335.587 133.93 335.484 133.442 335.277 133.155C335.074 132.868 334.764 132.725 334.347 132.725C333.927 132.725 333.572 132.88 333.282 133.19C332.996 133.497 332.852 133.883 332.852 134.35L332.362 134.035C332.362 133.552 332.581 133.095 333.017 132.665C333.457 132.232 334.022 132.015 334.712 132.015C335.399 132.015 335.884 132.247 336.167 132.71C336.454 133.17 336.597 133.803 336.597 134.61V138H335.587ZM339.086 138L337.241 132.07H338.306L339.816 137.365H339.811L341.321 132.07H342.381L340.536 138H339.086ZM343.336 138V132.07H344.351V138H343.336ZM343.336 130.45H344.351V131.35H343.336V130.45ZM349.172 134.84C349.172 134.027 349.074 133.472 348.877 133.175C348.684 132.878 348.397 132.73 348.017 132.73C347.587 132.73 347.249 132.875 347.002 133.165C346.759 133.452 346.637 133.777 346.637 134.14L346.247 133.855C346.247 133.348 346.44 132.917 346.827 132.56C347.214 132.203 347.732 132.025 348.382 132.025C349.059 132.025 349.527 132.25 349.787 132.7C350.05 133.147 350.182 133.86 350.182 134.84H349.172ZM345.632 138V132.075H346.427L346.642 133.22V138H345.632ZM353.545 138.045C352.662 138.045 352.005 137.798 351.575 137.305C351.149 136.812 350.935 136.05 350.935 135.02C350.935 133.99 351.149 133.232 351.575 132.745C352.005 132.258 352.662 132.015 353.545 132.015C354.429 132.015 355.084 132.258 355.51 132.745C355.937 133.232 356.15 133.99 356.15 135.02C356.15 136.05 355.937 136.812 355.51 137.305C355.084 137.798 354.429 138.045 353.545 138.045ZM353.545 137.345C354.009 137.345 354.39 137.183 354.69 136.86C354.99 136.533 355.14 135.922 355.14 135.025C355.14 134.132 354.99 133.523 354.69 133.2C354.39 132.873 354.009 132.71 353.545 132.71C353.082 132.71 352.7 132.873 352.4 133.2C352.1 133.523 351.95 134.132 351.95 135.025C351.95 135.922 352.1 136.533 352.4 136.86C352.7 137.183 353.082 137.345 353.545 137.345ZM357.126 138V132.075H357.916L358.136 133.225V138H357.126ZM360.841 138V134.62C360.841 133.93 360.738 133.442 360.531 133.155C360.328 132.868 360.018 132.725 359.601 132.725C359.181 132.725 358.826 132.88 358.536 133.19C358.249 133.497 358.106 133.883 358.106 134.35L357.616 134.035C357.616 133.552 357.834 133.095 358.271 132.665C358.711 132.232 359.276 132.015 359.966 132.015C360.653 132.015 361.138 132.247 361.421 132.71C361.708 133.17 361.851 133.803 361.851 134.61V138H360.841ZM362.937 138V132.075H363.732L363.947 133.06V138H362.937ZM366.252 138V134.445C366.252 133.865 366.17 133.435 366.007 133.155C365.843 132.872 365.577 132.73 365.207 132.73C364.83 132.73 364.525 132.883 364.292 133.19C364.058 133.497 363.942 133.923 363.942 134.47L363.402 134.205C363.402 133.625 363.607 133.117 364.017 132.68C364.43 132.24 364.935 132.02 365.532 132.02C366.202 132.02 366.657 132.245 366.897 132.695C367.14 133.145 367.262 133.705 367.262 134.375V138H366.252ZM369.552 138V134.445C369.552 133.865 369.472 133.435 369.312 133.155C369.155 132.872 368.89 132.73 368.517 132.73C368.14 132.73 367.835 132.883 367.602 133.19C367.368 133.497 367.252 133.923 367.252 134.47L366.717 134.205C366.717 133.635 366.922 133.128 367.332 132.685C367.745 132.242 368.248 132.02 368.842 132.02C369.512 132.02 369.965 132.245 370.202 132.695C370.442 133.142 370.562 133.702 370.562 134.375V138H369.552ZM374.082 138.05C373.162 138.05 372.499 137.783 372.092 137.25C371.689 136.717 371.487 135.975 371.487 135.025C371.487 134.025 371.694 133.275 372.107 132.775C372.521 132.272 373.174 132.02 374.067 132.02C374.984 132.02 375.639 132.272 376.032 132.775C376.429 133.275 376.627 134.02 376.627 135.01C376.627 135.127 376.621 135.235 376.607 135.335H372.357V134.705H375.677L375.622 134.815C375.622 134.042 375.486 133.495 375.212 133.175C374.939 132.852 374.557 132.69 374.067 132.69C373.591 132.69 373.204 132.858 372.907 133.195C372.614 133.532 372.467 134.142 372.467 135.025C372.467 135.862 372.609 136.465 372.892 136.835C373.179 137.202 373.576 137.385 374.082 137.385V138.05ZM374.082 137.385C374.372 137.385 374.624 137.337 374.837 137.24C375.054 137.14 375.221 136.973 375.337 136.74C375.457 136.507 375.546 136.245 375.602 135.955L376.512 136.2C376.456 136.607 376.324 136.952 376.117 137.235C375.911 137.518 375.644 137.725 375.317 137.855C374.994 137.985 374.582 138.05 374.082 138.05V137.385ZM377.634 138V132.075H378.424L378.644 133.225V138H377.634ZM381.349 138V134.62C381.349 133.93 381.246 133.442 381.039 133.155C380.836 132.868 380.526 132.725 380.109 132.725C379.689 132.725 379.334 132.88 379.044 133.19C378.757 133.497 378.614 133.883 378.614 134.35L378.124 134.035C378.124 133.552 378.342 133.095 378.779 132.665C379.219 132.232 379.784 132.015 380.474 132.015C381.161 132.015 381.646 132.247 381.929 132.71C382.216 133.17 382.359 133.803 382.359 134.61V138H381.349ZM385.887 138.065C385.45 138.065 385.085 137.97 384.792 137.78C384.499 137.59 384.352 137.235 384.352 136.715V132.785H382.967V132.075H384.352V130.735H385.367V132.075H387.322V132.785H385.367V136.475C385.367 136.838 385.44 137.078 385.587 137.195C385.737 137.312 385.95 137.37 386.227 137.37C386.47 137.37 386.707 137.332 386.937 137.255V137.94C386.604 138.023 386.254 138.065 385.887 138.065Z" fill="#252525"/>
</svg>
